<?xml version="1.0" encoding="utf-8"?>
<svg version="1.0" height="580" width="915" id="svg2" xmlns="http://www.w3.org/2000/svg" xmlns:bx="https://boxy-svg.com">
  <path transform="matrix(0,1,1,0,0,0)" id="path2782" style="opacity:1;fill:#ffffff;fill-opacity:1;fill-rule:nonzero;stroke:#000000;stroke-width:1.99999988;stroke-linejoin:miter;stroke-miterlimit:4;stroke-dasharray:none;stroke-opacity:1"/>
  <text transform="scale(1.0001758,0.99982423)" style="font: 13.3234px / 1.25 &quot;Times New Roman&quot;; letter-spacing: 0px; word-spacing: 0px; fill: rgb(0, 0, 0); fill-opacity: 1; stroke: none; stroke-width: 1; white-space: pre;" x="196.37582" y="-166.3719" id="text990"><tspan id="tspan988" x="196.37582" y="-166.3719" style="stroke-width:1">constructed startin with 1x1mm square; last square is 144x144</tspan></text>
  <path d="M 18.898 4.202 C 18.898 -49.266 75.654 -92.609 145.665 -92.609" id="path1873" style="opacity: 1; fill: none; fill-opacity: 1; fill-rule: nonzero; stroke: rgb(0, 0, 0); stroke-width: 2.66667; stroke-linejoin: miter; stroke-miterlimit: 4; stroke-dasharray: none; stroke-opacity: 1;"/>
  <path style="opacity: 1; fill: none; fill-opacity: 1; fill-rule: nonzero; stroke: rgb(0, 0, 0); stroke-width: 2.66667; stroke-linejoin: miter; stroke-miterlimit: 4; stroke-dasharray: none; stroke-opacity: 1;" id="path1875" d="M 148.276 -92.609 C 148.276 -59.564 182.186 -32.775 224.016 -32.775" transform="matrix(-1, 0, 0, -1, 372.292007, -125.384003)"/>
  <path d="M 182.126 -37.69 C 182.126 -11.84 198.68 9.116 219.101 9.116" id="path2762" style="opacity: 1; fill: none; fill-opacity: 1; fill-rule: nonzero; stroke: rgb(0, 0, 0); stroke-width: 2.66667; stroke-linejoin: miter; stroke-miterlimit: 4; stroke-dasharray: none; stroke-opacity: 1;" transform="matrix(0, -1, 1, 0, 214.900501, 186.326504)"/>
  <path style="opacity: 1; fill: none; fill-opacity: 1; fill-rule: nonzero; stroke: rgb(0, 0, 0); stroke-width: 2.66667; stroke-linejoin: miter; stroke-miterlimit: 4; stroke-dasharray: none; stroke-opacity: 1;" id="path2764" d="M 148.276 -18.657 C 148.276 -6.033 161.23 4.201 177.21 4.201"/>
  <path d="M 148.276 -18.657 C 148.276 -26.454 156.276 -32.775 166.147 -32.775" id="path2766" style="opacity: 1; fill: none; fill-opacity: 1; fill-rule: nonzero; stroke: rgb(0, 0, 0); stroke-width: 2.66667; stroke-linejoin: miter; stroke-miterlimit: 4; stroke-dasharray: none; stroke-opacity: 1;"/>
  <path style="opacity: 1; fill: none; fill-opacity: 1; fill-rule: nonzero; stroke: rgb(0, 0, 0); stroke-width: 2.66667; stroke-linejoin: miter; stroke-miterlimit: 4; stroke-dasharray: none; stroke-opacity: 1;" id="path2768" d="M 166.147 -32.775 C 166.147 -27.948 171.101 -24.035 177.21 -24.035" transform="matrix(-1, 0, 0, -1, 343.35701, -56.810001)"/>
  <path d="M 170.403 -18.657 C 170.403 -21.628 173.45 -24.035 177.21 -24.035" id="path2770" style="opacity: 1; fill: none; fill-opacity: 1; fill-rule: nonzero; stroke: rgb(0, 0, 0); stroke-width: 2.66667; stroke-linejoin: miter; stroke-miterlimit: 4; stroke-dasharray: none; stroke-opacity: 1;" transform="matrix(-1, 0, 0, -1, 347.613007, -42.691999)"/>
  <path style="opacity: 1; fill: none; fill-opacity: 1; fill-rule: nonzero; stroke: rgb(0, 0, 0); stroke-width: 2.66667; stroke-linejoin: miter; stroke-miterlimit: 4; stroke-dasharray: none; stroke-opacity: 1;" id="path2772" d="M 166.147 -22.019 C 166.147 -20.162 168.053 -18.657 170.402 -18.657"/>
  <path d="M 166.147 -22.019 C 166.147 -23.132 167.291 -24.035 168.701 -24.035" id="path2774" style="opacity: 1; fill: none; fill-opacity: 1; fill-rule: nonzero; stroke: rgb(0, 0, 0); stroke-width: 2.66667; stroke-linejoin: miter; stroke-miterlimit: 4; stroke-dasharray: none; stroke-opacity: 1;"/>
  <path id="rect2784" d="M 168.701 -22.019 L 168.701 -24.035" style="fill: none; fill-opacity: 1; fill-rule: nonzero; stroke: rgb(0, 0, 0); stroke-width: 2.66667; stroke-linejoin: miter; stroke-miterlimit: 4; stroke-dasharray: none; stroke-opacity: 1;"/>
  <path id="rect2786" d="M 170.402 -22.019 L 166.147 -22.019" style="fill: none; fill-opacity: 1; fill-rule: nonzero; stroke: rgb(0, 0, 0); stroke-width: 2.66667; stroke-linejoin: miter; stroke-miterlimit: 4; stroke-dasharray: none; stroke-opacity: 1;"/>
  <path id="rect2788" d="M 168.701 -22.691 L 170.402 -22.691" style="fill: none; fill-opacity: 1; fill-rule: nonzero; stroke: rgb(0, 0, 0); stroke-width: 2.66667; stroke-linejoin: miter; stroke-miterlimit: 4; stroke-dasharray: none; stroke-opacity: 1;"/>
  <path id="rect2790" d="M 169.55 -22.69 L 169.55 -22.019" style="fill: none; fill-opacity: 1; fill-rule: nonzero; stroke: rgb(0, 0, 0); stroke-width: 2.66667; stroke-linejoin: miter; stroke-miterlimit: 4; stroke-dasharray: none; stroke-opacity: 1;"/>
  <path id="rect2794" d="M 170.403 -24.035 L 170.403 -18.657" style="fill: none; fill-opacity: 1; fill-rule: nonzero; stroke: rgb(0, 0, 0); stroke-width: 2.66667; stroke-linejoin: miter; stroke-miterlimit: 4; stroke-dasharray: none; stroke-opacity: 1;"/>
  <path id="rect2796" d="M 166.147 -24.035 L 177.21 -24.035" style="fill: none; fill-opacity: 1; fill-rule: nonzero; stroke: rgb(0, 0, 0); stroke-width: 2.66667; stroke-linejoin: miter; stroke-miterlimit: 4; stroke-dasharray: none; stroke-opacity: 1;"/>
  <path id="rect2798" d="M 166.147 -18.656 L 166.147 -32.775" style="fill: none; fill-opacity: 1; fill-rule: nonzero; stroke: rgb(0, 0, 0); stroke-width: 2.66667; stroke-linejoin: miter; stroke-miterlimit: 4; stroke-dasharray: none; stroke-opacity: 1;"/>
  <path id="rect2800" d="M 177.21 -18.657 L 148.276 -18.657" style="fill: none; fill-opacity: 1; fill-rule: nonzero; stroke: rgb(0, 0, 0); stroke-width: 2.66667; stroke-linejoin: miter; stroke-miterlimit: 4; stroke-dasharray: none; stroke-opacity: 1;"/>
  <path id="rect2802" d="M 177.21 -32.775 L 177.21 4.202" style="fill: none; fill-opacity: 1; fill-rule: nonzero; stroke: rgb(0, 0, 0); stroke-width: 2.66667; stroke-linejoin: miter; stroke-miterlimit: 4; stroke-dasharray: none; stroke-opacity: 1;"/>
  <path id="rect2804" d="M 148.276 -32.81 L 224.059 -32.81" style="fill: none; fill-opacity: 1; fill-rule: nonzero; stroke: rgb(0, 0, 0); stroke-width: 2.66667; stroke-linejoin: miter; stroke-miterlimit: 4; stroke-dasharray: none; stroke-opacity: 1;"/>
  <path id="rect2806" d="M 148.276 4.202 L 148.276 -92.609" style="fill: none; fill-opacity: 1; fill-rule: nonzero; stroke: rgb(0, 0, 0); stroke-width: 2.66667; stroke-linejoin: miter; stroke-miterlimit: 4; stroke-dasharray: none; stroke-opacity: 1;"/>
  <path style="fill: none; fill-opacity: 1; fill-rule: nonzero; stroke: rgb(0, 0, 0); stroke-width: 2.66667; stroke-linejoin: miter; stroke-miterlimit: 4; stroke-dasharray: none; stroke-opacity: 1;" d="M 18.898 4.202 L 18.898 -92.698" id="path922"/>
  <path id="path924" d="M 224.017 4.112 L 224.017 -92.698" style="fill: none; fill-opacity: 1; fill-rule: nonzero; stroke: rgb(0, 0, 0); stroke-width: 2.66667; stroke-linejoin: miter; stroke-miterlimit: 4; stroke-dasharray: none; stroke-opacity: 1;"/>
  <path style="fill: none; fill-opacity: 1; fill-rule: nonzero; stroke: rgb(0, 0, 0); stroke-width: 2.66667; stroke-linejoin: miter; stroke-miterlimit: 4; stroke-dasharray: none; stroke-opacity: 1;" d="M 18.898 -92.698 L 224.131 -92.698" id="path926"/>
  <path id="path928" d="M 18.898 4.202 L 224.131 4.202" style="fill: none; fill-opacity: 1; fill-rule: nonzero; stroke: rgb(0, 0, 0); stroke-width: 2.66667; stroke-linejoin: miter; stroke-miterlimit: 4; stroke-dasharray: none; stroke-opacity: 1;"/>
  <path d="M 168.701 -24.035 C 168.701 -23.292 169.463 -22.691 170.402 -22.691" id="path1028" style="opacity: 1; fill: none; fill-opacity: 1; fill-rule: nonzero; stroke: rgb(0, 0, 0); stroke-width: 2.66667; stroke-linejoin: miter; stroke-miterlimit: 4; stroke-dasharray: none; stroke-opacity: 1;" transform="matrix(-1, 0, 0, -1, 339.102997, -46.726)"/>
  <path style="opacity: 1; fill: none; fill-opacity: 1; fill-rule: nonzero; stroke: rgb(0, 0, 0); stroke-width: 2.66667; stroke-linejoin: miter; stroke-miterlimit: 4; stroke-dasharray: none; stroke-opacity: 1;" id="path1030" d="M 169.55 -22.018 C 169.55 -22.39 169.932 -22.69 170.402 -22.69" transform="matrix(-1, 0, 0, -1, 339.951996, -44.708)"/>
  <path d="M 168.702 -22.692 C 168.702 -22.321 169.083 -22.019 169.552 -22.019" id="path1034" style="opacity: 1; fill: none; fill-opacity: 1; fill-rule: nonzero; stroke: rgb(0, 0, 0); stroke-width: 2.66667; stroke-linejoin: miter; stroke-miterlimit: 4; stroke-dasharray: none; stroke-opacity: 1;"/>
  <path style="fill: rgb(216, 216, 216); stroke: rgb(0, 0, 0);" d="M 56.51500000000001 -50.81216666666666 C 53.085 -48.79633333333334 46.225 -44.76466666666666 47.0165 -43.49766666666667 C 47.808 -42.230666666666664 56.251000000000005 -43.72833333333333 60.92483333333334 -44.016333333333336 C 65.59866666666666 -44.30433333333334 66.50333333333333 -43.382666666666665 65.938 -41.338166666666666 C 65.37266666666666 -39.29366666666667 63.33733333333333 -36.126333333333335 60.397333333333336 -35.291333333333334 C 57.45733333333334 -34.45633333333333 53.61266666666666 -35.95366666666667 53.53716666666667 -36.55833333333334 C 53.461666666666666 -37.163000000000004 57.15533333333334 -36.875 59.60516666666666 -37.62366666666667 C 62.055 -38.37233333333334 63.260999999999996 -40.157666666666664 62.997166666666665 -41.568666666666665 C 62.73333333333333 -42.97966666666667 60.99966666666666 -44.01633333333333 59.002166666666675 -44.592166666666664 C 57.00466666666667 -45.168 54.74333333333333 -45.282999999999994 54.856500000000004 -46.578833333333336 C 54.96966666666666 -47.87466666666668 57.45733333333334 -50.351333333333336 58.701166666666666 -51.589666666666666 C 59.945 -52.828 59.945 -52.828 59.945 -52.827999999999996 C 59.945 -52.828 59.945 -52.828 56.51500000000001 -50.81216666666666" bx:d="M 59.945 -52.828 U 39.365 -40.733 U 64.694 -45.226 U 67.408 -42.461 U 61.302 -32.959 U 49.768 -37.451 U 60.849 -36.587 U 64.467 -41.943 U 59.266 -45.053 U 52.482 -45.398 U 59.945 -52.828 U 59.945 -52.828 Z 1@d13a110f"/>
  <path style="fill: rgb(216, 216, 216); stroke: rgb(0, 0, 0);" d="M 101.04516666666666 -64.17216666666666 C 98.64033333333333 -62.905333333333324 93.83066666666667 -60.37166666666667 93.24766666666666 -57.57866666666666 C 92.66466666666668 -54.785666666666664 96.30833333333334 -51.73333333333333 100.89933333333333 -51.38783333333333 C 105.49033333333334 -51.04233333333334 111.02866666666667 -53.40366666666667 112.77766666666668 -55.30416666666667 C 114.52666666666666 -57.20466666666667 112.48633333333333 -58.64433333333333 110.118 -58.9035 C 107.74966666666667 -59.16266666666667 105.05333333333333 -58.24133333333333 105.08983333333333 -57.723000000000006 C 105.12633333333333 -57.20466666666667 107.89566666666667 -57.089333333333336 109.17083333333335 -56.74366666666666 C 110.44600000000001 -56.397999999999996 110.22699999999999 -55.822 109.644 -55.30383333333334 C 109.06099999999999 -54.785666666666664 108.11399999999999 -54.32533333333333 106.83883333333334 -54.06633333333334 C 105.56366666666668 -53.80733333333333 103.96033333333332 -53.74966666666666 102.35700000000001 -54.12383333333333 C 100.75366666666666 -54.498 99.15033333333334 -55.304 98.38516666666665 -56.3405 C 97.62 -57.377 97.693 -58.644000000000005 98.67683333333333 -60.19883333333333 C 99.66066666666667 -61.75366666666667 101.55533333333334 -63.59633333333333 102.50266666666668 -64.51766666666667 C 103.45 -65.439 103.45 -65.439 103.45 -65.43899999999998 C 103.45 -65.439 103.45 -65.439 101.04516666666666 -64.17216666666666" bx:d="M 103.45 -65.439 U 89.021 -57.838 U 99.952 -48.681 U 116.567 -55.765 U 110.446 -60.084 U 102.357 -57.32 U 110.665 -56.974 U 110.008 -55.246 U 107.167 -53.865 U 102.357 -53.692 U 97.547 -56.11 U 97.766 -59.911 U 103.45 -65.439 U 103.45 -65.439 Z 1@31ed9299"/>
  <path style="fill: rgb(216, 216, 216); stroke: rgb(0, 0, 0);" d="M 64.7315 -48.738499999999995 C 68.83999999999999 -46.550000000000004 77.057 -42.173 81.01466666666666 -44.073499999999996 C 84.97233333333334 -45.974 84.67066666666666 -54.151999999999994 83.72833333333334 -57.83783333333333 C 82.786 -61.523666666666664 81.203 -60.71733333333333 80.82616666666668 -59.19116666666667 C 80.44933333333334 -57.665 81.27866666666667 -55.419000000000004 81.61800000000001 -53.37466666666666 C 81.95733333333334 -51.330333333333336 81.80666666666667 -49.48766666666668 81.0905 -48.364666666666665 C 80.37433333333334 -47.241666666666674 79.09266666666667 -46.83833333333334 77.09500000000001 -46.95333333333334 C 75.09733333333334 -47.068333333333335 72.38366666666667 -47.701666666666675 69.51899999999999 -48.45033333333333 C 66.65433333333333 -49.199000000000005 63.638666666666666 -50.062999999999995 62.13083333333333 -50.495000000000005 C 60.623 -50.927 60.623 -50.927 60.623 -50.927 C 60.623 -50.927 60.623 -50.927 64.7315 -48.738499999999995" bx:d="M 60.623 -50.927 U 85.274 -37.796 U 84.369 -62.33 U 79.62 -59.911 U 82.108 -53.173 U 81.656 -47.645 U 77.811 -46.435 U 69.67 -48.335 U 60.623 -50.927 U 60.623 -50.927 Z 1@3dddc2dc"/>
  <path style="fill: rgb(216, 216, 216); stroke: rgb(0, 0, 0);" d="M 55.874 -25.863333333333333 C 55.011 -24.468666666666667 53.285 -21.679333333333332 54.27583333333334 -18.639333333333333 C 55.26666666666667 -15.599333333333334 58.974333333333334 -12.308666666666667 62.49033333333333 -11.499833333333335 C 66.00633333333333 -10.691 69.33066666666667 -12.363999999999999 70.16183333333333 -13.284166666666666 C 70.993 -14.204333333333333 69.331 -14.371666666666668 67.89266666666667 -14.343833333333334 C 66.45433333333334 -14.316 65.23966666666666 -14.092999999999998 63.833 -14.4835 C 62.42633333333333 -14.874 60.827666666666666 -15.878 59.42116666666667 -17.188833333333335 C 58.01466666666666 -18.499666666666666 56.800333333333334 -20.117333333333335 56.385 -21.846666666666668 C 55.96966666666666 -23.575999999999997 56.35333333333333 -25.417 56.54516666666667 -26.337500000000002 C 56.737 -27.258 56.737 -27.258 56.737 -27.258 C 56.737 -27.258 56.737 -27.258 55.874 -25.863333333333333" bx:d="M 56.737 -27.258 U 51.559 -18.89 U 62.682 -9.018 U 72.655 -14.037 U 67.669 -14.539 U 64.025 -13.87 U 59.229 -16.882 U 55.586 -21.735 U 56.737 -27.258 U 56.737 -27.258 Z 1@be7dc6cc"/>
  <path style="fill: rgb(216, 216, 216); stroke: rgb(0, 0, 0);" d="M 68.9325 -25.44383333333333 C 70.269 -23.629666666666665 72.942 -20.001333333333335 75.37933333333332 -17.928 C 77.81666666666666 -15.854666666666667 80.01833333333333 -15.336333333333334 82.69166666666666 -16.373 C 85.36500000000001 -17.409666666666666 88.50999999999999 -20.00133333333333 88.85083333333334 -21.153166666666667 C 89.19166666666666 -22.304999999999996 86.72833333333334 -22.017 85.12966666666667 -21.383499999999998 C 83.531 -20.75 82.79700000000001 -19.771 81.51266666666668 -19.742166666666666 C 80.22833333333334 -19.713333333333335 78.39366666666666 -20.634666666666668 75.9825 -22.045666666666666 C 73.57133333333333 -23.456666666666667 70.58366666666667 -25.357333333333333 69.08983333333333 -26.307666666666666 C 67.596 -27.258 67.596 -27.258 67.596 -27.258 C 67.596 -27.258 67.596 -27.258 68.9325 -25.44383333333333" bx:d="M 67.596 -27.258 U 75.615 -16.373 U 82.22 -14.818 U 91.655 -22.593 U 84.265 -21.729 U 82.063 -18.792 U 76.559 -21.556 U 67.596 -27.258 U 67.596 -27.258 Z 1@b4c8e9b5"/>
  <path style="fill: rgb(216, 216, 216); stroke: rgb(0, 0, 0);" d="M 80.49383333333333 -31.5765 C 82.89866666666667 -29.676 87.70833333333333 -25.875 91.20633333333335 -24.579333333333334 C 94.70433333333334 -23.283666666666665 96.89066666666668 -24.493333333333336 96.41716666666667 -26.393833333333333 C 95.94366666666667 -28.29433333333333 92.81033333333335 -30.885666666666665 90.4055 -32.930166666666665 C 88.00066666666667 -34.974666666666664 86.32433333333334 -36.47233333333333 84.393 -36.47233333333333 C 82.46166666666666 -36.47233333333333 80.27533333333334 -34.974666666666664 79.18216666666667 -34.225833333333334 C 78.089 -33.477 78.089 -33.477 78.089 -33.477 C 78.089 -33.477 78.089 -33.477 80.49383333333333 -31.5765" bx:d="M 78.089 -33.477 U 92.518 -22.074 U 99.077 -25.703 U 89.677 -33.477 U 84.648 -37.97 U 78.089 -33.477 U 78.089 -33.477 Z 1@a4696630"/>
</svg>